# xmcd
#
# Track frame offsets:
#	150
#	21359
#	34529
#	52604
#	73146
#	86757
#	103090
#	124354
#	143913
#	164013
#	181301
#	197064
#	213770
#	225464
#	242423
#	258162
#	273694
#	288862
#	304259
#	325437
#
# Disc length: 4574 seconds
#
# Revision: 0
# Processed by: cddbd v1.5.2PL0 Copyright (c) Steve Scherf et al.
# Submitted via: audiograbber 1.83.01
#
DISCID=2311dc14
DTITLE=JOHN GREEK 88.6 (BY DJ ZRAF) - еяытеулемес цумаийес
DYEAR=2007
DGENRE=каийа
TTITLE0=биссг - циа текеутаиа жояа
TTITLE1=хеодыяидоу - аваяистг йаядиа
TTITLE2=цаялпг - лг ле суцйяимеис латиа лоу
TTITLE3=фыг - лоу екеиьес
TTITLE4=папаяифоу - стгм йаядиа лоу ломо хкиьг
TTITLE5=C REAL - лгм амгсувеис
TTITLE6=йоутакидоу - ха яацифоум ои йаядиес
TTITLE7=алаяуккис - выяис есема
TTITLE8=леяйоуяг - поу ма жамтасты
TTITLE9=паока - еилаи еяытеулемг
TTITLE10=дяайопоукоу - с' аутг ма пас
TTITLE11=дглгтяиоу - поиа хусиа
TTITLE12=циацйоусг - вакаки соу
TTITLE13=папаиыаммоу - с' ацапаы л' айоус
TTITLE14=йекейидоу - ла то хео
TTITLE15=ластяакенг - еисаи мими айола
TTITLE16=лекитг - ти то кес
TTITLE17=йакатфг - се лисы ле лиа атекеиытг ацапг
TTITLE18=ягца - дем еимаи есу
TTITLE19=беяяа - то йатаккгко пяосыпо
EXTD=
EXTT0=
EXTT1=
EXTT2=
EXTT3=
EXTT4=
EXTT5=
EXTT6=
EXTT7=
EXTT8=
EXTT9=
EXTT10=
EXTT11=
EXTT12=
EXTT13=
EXTT14=
EXTT15=
EXTT16=
EXTT17=
EXTT18=
EXTT19=
PLAYORDER=
